<svg aria-hidden="true" style="position: absolute; width: 0; height: 0; overflow: hidden;" version="1.1" xmlns="http://www.w3.org/2000/svg" xmlns:xlink="http://www.w3.org/1999/xlink">
<defs>

<symbol id="HOME" viewBox="0 0 24 24">
	<image href="/static/app/assets/sprites/Icon_Wish.webp" height="24" width="24"/>
</symbol>
<symbol id="DASHBOARD" viewBox="0 0 24 24">
	<image href="/static/app/assets/sprites/Icon_List.webp" height="24" width="24"/>
</symbol>
<symbol id="INVENTORY" viewBox="0 0 24 24">
	<image href="/static/app/assets/sprites/Icon_Inventory.webp" height="24" width="24"/>
</symbol>
<symbol id="PLANNER" viewBox="0 0 24 24">
	<image href="/static/app/assets/sprites/Icon_Adventurer_Handbook.webp" height="24" width="24"/>
</symbol>
<symbol id="CHARACTERS" viewBox="0 0 24 24">
	<image href="/static/app/assets/sprites/Icon_Character_Archive.webp" height="24" width="24"/>
</symbol>
<symbol id="WEAPONS" viewBox="0 0 24 24">
	<image href="/static/app/assets/sprites/Icon_Inventory_Weapons.webp" height="24" width="24"/>
</symbol>
<symbol id="COMPARE" viewBox="0 0 24 24">
	<image href="/static/app/assets/sprites/Icon_Feedback.webp" height="24" width="24"/>
</symbol>
<symbol id="DATA" viewBox="0 0 24 24">
	<image href="/static/app/assets/sprites/Icon_Archive_Books.webp" height="24" width="24"/>
</symbol>


<symbol id="Menu" viewBox="0 0 24 24">
	<image href="/static/app/assets/sprites/Icon_Paimon_Menu.webp" height="24" width="24"/>
</symbol>

<symbol id="Resin" viewBox="0 0 24 24">
	<image href="/static/app/assets/sprites/Item_Fragile_Resin.webp" height="24" width="24"/>
</symbol>

<symbol id="Save" viewBox="0 0 24 24">
	<path d="M14.016 12.984h3l-5.016-4.969-5.016 4.969h3v4.031h4.031v-4.031zM19.359 10.031q1.922 0.141 3.281 1.57t1.359 3.398q0 2.063-1.477 3.539t-3.539 1.477h-12.984q-2.484 0-4.242-1.758t-1.758-4.242q0-2.203 1.57-3.961t3.773-1.992q0.984-1.828 2.766-2.953t3.891-1.125q2.531 0 4.711 1.781t2.648 4.266z"></path>
</symbol>

<symbol id="Reload" viewBox="0 0 24 24">
	<path d="M17.016 12.984h-3v-3.984h-4.031v3.984h-3l5.016 5.016zM19.359 10.031q1.922 0.141 3.281 1.57t1.359 3.398q0 2.063-1.477 3.539t-3.539 1.477h-12.984q-2.484 0-4.242-1.758t-1.758-4.242q0-2.203 1.57-3.961t3.773-1.992q0.984-1.828 2.766-2.953t3.891-1.125q2.531 0 4.711 1.781t2.648 4.266z"></path>
</symbol>

<symbol id="Profile" viewBox="3 3 18 18">
	<image href="/static/app/assets/sprites/Icon_Inventory_Character_Development_Items.webp" height="24" width="24"/>
</symbol>

<symbol id="Logout" viewBox="3 3 18 18">
	<image href="/static/app/assets/sprites/Icon_Quit_Game.webp" height="24" width="24"/>
</symbol>

<symbol id="X" viewBox="0 0 24 24">
	<path d="M18.984 6.422l-5.578 5.578 5.578 5.578-1.406 1.406-5.578-5.578-5.578 5.578-1.406-1.406 5.578-5.578-5.578-5.578 1.406-1.406 5.578 5.578 5.578-5.578z"></path>
</symbol>

<symbol id="Check" viewBox="0 0 24 24">
	<path d="M9 16.172l10.594-10.594 1.406 1.406-12 12-5.578-5.578 1.406-1.406z"></path>
</symbol>


<symbol id="Arrow" viewBox="0 0 24 24">
	<path d="M23.25 12l-11.25-11.25v6.75h-12v9h12v6.75z"></path>
</symbol>

<symbol id="Craft" viewBox="0 0 24 24">
	<image href="/static/app/assets/sprites/UI_Alchemy.webp" height="24" width="24"/>
</symbol>

<symbol id="Convert" viewBox="0 0 24 24">
	<image href="/static/app/assets/sprites/Icon_Converting.webp" height="24" width="24"/>
</symbol>

<symbol id="view_list" viewBox="0 0 24 24">
	<path d="M9 5.016h12v3.984h-12v-3.984zM9 18.984v-3.984h12v3.984h-12zM9 14.016v-4.031h12v4.031h-12zM3.984 9v-3.984h4.031v3.984h-4.031zM3.984 18.984v-3.984h4.031v3.984h-4.031zM3.984 14.016v-4.031h4.031v4.031h-4.031z"></path>
</symbol>

<symbol id="view_module" viewBox="0 0 24 24">
	<path d="M15.984 5.016h5.016v6h-5.016v-6zM9.984 11.016v-6h5.016v6h-5.016zM15.984 18v-6h5.016v6h-5.016zM9.984 18v-6h5.016v6h-5.016zM3.984 18v-6h5.016v6h-5.016zM3.984 11.016v-6h5.016v6h-5.016z"></path>
</symbol>

<symbol id="temp" viewBox="0 0 24 24">
	<path d="M3 5.016v13.969q0 0.844 0.586 1.43t1.43 0.586h6v-18h-6q-0.844 0-1.43 0.586t-0.586 1.43zM18.984 3h-6v8.016h8.016v-6q0-0.844-0.586-1.43t-1.43-0.586zM12.984 21h6q0.844 0 1.43-0.586t0.586-1.43v-6h-8.016v8.016z"></path>
</symbol>

</defs>
</svg>
