<svg aria-hidden="true" style="position: absolute; width: 0; height: 0; overflow: hidden;" version="1.1" xmlns="http://www.w3.org/2000/svg" xmlns:xlink="http://www.w3.org/1999/xlink">
<defs>

<symbol id="view_list" viewBox="0 0 24 24">
	<path d="M9 5.016h12v3.984h-12v-3.984zM9 18.984v-3.984h12v3.984h-12zM9 14.016v-4.031h12v4.031h-12zM3.984 9v-3.984h4.031v3.984h-4.031zM3.984 18.984v-3.984h4.031v3.984h-4.031zM3.984 14.016v-4.031h4.031v4.031h-4.031z"></path>
</symbol>

<symbol id="view_module" viewBox="0 0 24 24">
	<path d="M15.984 5.016h5.016v6h-5.016v-6zM9.984 11.016v-6h5.016v6h-5.016zM15.984 18v-6h5.016v6h-5.016zM9.984 18v-6h5.016v6h-5.016zM3.984 18v-6h5.016v6h-5.016zM3.984 11.016v-6h5.016v6h-5.016z"></path>
</symbol>

<symbol id="temp" viewBox="0 0 24 24">
	<path d="M3 5.016v13.969q0 0.844 0.586 1.43t1.43 0.586h6v-18h-6q-0.844 0-1.43 0.586t-0.586 1.43zM18.984 3h-6v8.016h8.016v-6q0-0.844-0.586-1.43t-1.43-0.586zM12.984 21h6q0.844 0 1.43-0.586t0.586-1.43v-6h-8.016v8.016z"></path>
</symbol>

<symbol id="Icon_Inventory" viewBox="0 0 32 32">
	<path d="M11.956 3.778c-0.844 1.422-1.111 1.556-3.067 1.556-1.2 0-2.311 0.178-2.444 0.444-0.622 1.022-1.644 5.289-1.778 7.333-0.044 1.2-0.267 3.911-0.444 6-0.267 3.511-0.222 3.911 0.756 5.289 0.578 0.844 1.244 1.911 1.556 2.4 0.711 1.244 1.467 1.644 3.333 1.644 1.422 0 1.733-0.178 1.956-1.111 0.267-1.067 0.4-1.111 4.178-1.111 3.733 0 3.911 0.044 4.178 1.067 0.311 1.289 0.933 1.556 2.844 1.289 0.889-0.133 1.644-0.622 1.956-1.2 0.267-0.489 1.067-1.6 1.822-2.444l1.289-1.511-0.311-6.133c-0.222-4.667-0.578-6.8-1.333-8.933l-1.022-2.8-2.267-0.222c-2-0.178-2.4-0.4-3.156-1.689-0.844-1.378-0.933-1.422-4-1.422-3.111 0-3.156 0-4.044 1.556zM19.022 3.644c0.311 0.311 0.533 0.889 0.533 1.333 0 0.667 0.356 0.8 2.133 0.8 1.156 0 2.311 0.178 2.622 0.356 0.667 0.444 2.578 6.222 2.178 6.667-0.178 0.178-2.089 0.4-4.178 0.444-3.422 0.133-4 0.311-5.067 1.333-1.2 1.111-1.244 1.111-2.222 0.267-0.578-0.444-1.111-0.978-1.244-1.111-0.133-0.178-1.956-0.356-4.089-0.444-2.089-0.089-4-0.311-4.178-0.489-0.4-0.444 1.511-6.222 2.178-6.667 0.311-0.178 1.467-0.356 2.667-0.356 1.733 0 2.089-0.133 2.089-0.8 0-1.378 0.978-1.867 3.556-1.867 1.378 0 2.711 0.222 3.022 0.533zM14.711 15.378l1.289 1.244 1.289-1.244c1.156-1.111 1.689-1.289 5.067-1.467 2.444-0.089 3.911 0 4.089 0.311 0.178 0.267 0.4 2.356 0.533 4.622 0.267 4.044 0.222 4.222-0.889 5.333l-1.156 1.156h-8.844c-7.956 0-8.978-0.089-9.867-0.8-1.289-1.022-1.644-4.578-0.889-8.267l0.533-2.533 3.778 0.178c3.378 0.178 3.911 0.356 5.067 1.467zM10.133 26.044c0.978 0.267 1.333 1.244 0.578 1.689-0.622 0.4-3.156-0.667-3.156-1.333s0.933-0.8 2.578-0.356zM24.444 26.444c0 0.844-1.911 1.778-2.844 1.422s-0.889-1.511 0.089-1.778c1.689-0.444 2.756-0.311 2.756 0.356z"></path>
	<path d="M14.356 4.756c-0.311 0.089-0.578 0.489-0.578 0.844 0 0.444 0.622 0.622 2.222 0.622s2.222-0.178 2.222-0.622c0-0.978-2.311-1.511-3.867-0.844z"></path>
	<path d="M7.911 16.044c-0.311 1.822 0 5.2 0.578 5.511 0.178 0.133 0.222-0.444 0.089-1.333-0.267-1.556-0.222-1.556 1.378-1.556 1.511 0 1.6 0.089 1.644 1.422 0.044 1.422 0.089 1.422 0.4-0.311 0.444-2.089 0-6.089-0.444-4.222-0.178 0.844-0.578 1.156-1.644 1.244-1.244 0.133-1.422 0-1.556-1.111-0.133-1.156-0.178-1.156-0.444 0.356z"></path>
	<path d="M23.6 15.644c-0.044 1.067-0.222 1.244-1.378 1.244-0.978 0-1.467-0.267-1.733-0.978-0.311-0.889-0.4-0.844-0.622 0.533-0.133 0.844-0.089 2.356 0.089 3.333 0.356 1.733 0.4 1.733 0.444 0.311 0.044-1.333 0.133-1.422 1.644-1.422 1.6 0 1.644 0 1.378 1.556-0.133 0.889-0.089 1.467 0.089 1.333 0.578-0.356 0.889-3.867 0.489-5.556-0.311-1.422-0.356-1.467-0.4-0.356z"></path>
</symbol>

<symbol id="menu" viewBox="0 0 24 24">
	<path d="M1.5 4.5h22.5v2.52h-22.5v-2.52zM1.5 13.23v-2.461h22.5v2.461h-22.5zM1.5 19.5v-2.52h22.5v2.52h-22.5z"></path>
</symbol>

<symbol id="dashboard" viewBox="0 0 24 24">
	<path d="M12.984 3h8.016v6h-8.016v-6zM12.984 21v-9.984h8.016v9.984h-8.016zM3 21v-6h8.016v6h-8.016zM3 12.984v-9.984h8.016v9.984h-8.016z"></path>
</symbol>

<symbol id="home" viewBox="0 0 24 24">
	<path d="M9.984 20.016h-4.969v-8.016h-3l9.984-9 9.984 9h-3v8.016h-4.969v-6h-4.031v6z"></path>
</symbol>

</defs>
</svg>
